# xmcd
#
# Track frame offsets: 
#        182
#        11312
#        24255
#        36107
#        48220
#        60260
#        70252
#        81640
#        90957
#        102337
#        113495
#        123867
#        136635
#        148890
#        162890
#        173762
#        188277
#        202662
#        213135
#        224675
#        238525
#        251980
#        263845
#        275452
#        286240
#        296347
#        306927
#
# Disc length: 4233 seconds
#
# Revision: 2
# Processed by: cddbd v1.5.2PL0 Copyright (c) Steve Scherf et al.
# Submitted via: ExactAudioCopy v0.95b4
#
DISCID=6d10871b
DTITLE=Lefty Frizzell - Life's Like Poetry - Disc 06 of 12
DYEAR=1992
DGENRE=Country
TTITLE0=Stranger (1962)
TTITLE1=A Few Steps Away (recorded 1962 - released 1963)
TTITLE2=Forbidden Lovers (recorded 1962 - released 1963)
TTITLE3=Just Passing Through (1962)
TTITLE4=That Reminds Me of Me (recorded 1963 - released 1984)
TTITLE5=Don't Let Her See Me Cry (1963)
TTITLE6=Through the Eyes of a Fool (recorded 1963 - released 1964)
TTITLE7=James River (1963)
TTITLE8=Preview of Coming Attractions (recorded 1963 - released 1984)
TTITLE9=Lonely Heart (recorded 1963 - released 1964)
TTITLE10=What Good Did You Get (Out of Breaking My Heart) (recorded 19
TTITLE10=63 - released 1964)
TTITLE11=When It Rains the Blues (1963)
TTITLE12=I'm Not the Man I'm Supposed to Be (recorded 1963 - released 
TTITLE12=1964)
TTITLE13=Saginaw, Michigan (1963)
TTITLE14=There's No Food in This House (1964)
TTITLE15=The Rider (1964)
TTITLE16=The Nester (1964)
TTITLE17=I Was Coming Home to You (1964)
TTITLE18=Hello to Him (Goodbye to Me) (1964)
TTITLE19=I Can Tell (recorded 1964 - released 1965)
TTITLE20=Make That One for the Road a Cup of Coffee (1964)
TTITLE21='Gator Hollow (1964)
TTITLE22=It Costs Too Much to Die (recorded 1964 - released 1984)
TTITLE23=She's Gone, Gone, Gone (1965)
TTITLE24=Running into Memories of You (1965)
TTITLE25=Confused (1965)
TTITLE26=How Far Down Can I Go (1965)
EXTD=Life's Like Poetry - Disc 06 of 12\n© 1992 Bear Family Records
EXTT0=
EXTT1=
EXTT2=
EXTT3=
EXTT4=
EXTT5=
EXTT6=
EXTT7=
EXTT8=
EXTT9=
EXTT10=
EXTT11=
EXTT12=
EXTT13=
EXTT14=
EXTT15=
EXTT16=
EXTT17=
EXTT18=
EXTT19=
EXTT20=
EXTT21=
EXTT22=
EXTT23=
EXTT24=
EXTT25=
EXTT26=
PLAYORDER=
